<svg xmlns="http://www.w3.org/2000/svg" xmlns:xlink="http://www.w3.org/1999/xlink" width="1336" zoomAndPan="magnify" viewBox="0 0 1002 893.99999" height="1192" preserveAspectRatio="xMidYMid meet" version="1.0"><defs><g/></defs><rect x="-100.2" width="1202.4" fill="#ffffff" y="-89.399999" height="1072.799988" fill-opacity="1"/><g fill="#ffffff" fill-opacity="1"><g transform="translate(321.653984, 487.357832)"><g><path d="M 5.59375 -33.875 C 5.59375 -40.394531 6.875 -46.253906 9.4375 -51.453125 C 12 -56.660156 15.5625 -60.675781 20.125 -63.5 C 24.695312 -66.332031 29.914062 -67.75 35.78125 -67.75 C 44.84375 -67.75 52.171875 -64.613281 57.765625 -58.34375 C 63.359375 -52.070312 66.15625 -43.734375 66.15625 -33.328125 L 66.15625 -32.53125 C 66.15625 -26.050781 64.914062 -20.238281 62.4375 -15.09375 C 59.957031 -9.945312 56.410156 -5.9375 51.796875 -3.0625 C 47.191406 -0.195312 41.894531 1.234375 35.90625 1.234375 C 26.882812 1.234375 19.578125 -1.898438 13.984375 -8.171875 C 8.390625 -14.441406 5.59375 -22.742188 5.59375 -33.078125 Z M 17.03125 -32.53125 C 17.03125 -25.144531 18.738281 -19.21875 22.15625 -14.75 C 25.582031 -10.28125 30.164062 -8.046875 35.90625 -8.046875 C 41.6875 -8.046875 46.273438 -10.3125 49.671875 -14.84375 C 53.078125 -19.375 54.78125 -25.71875 54.78125 -33.875 C 54.78125 -41.175781 53.046875 -47.085938 49.578125 -51.609375 C 46.117188 -56.140625 41.519531 -58.40625 35.78125 -58.40625 C 30.164062 -58.40625 25.632812 -56.171875 22.1875 -51.703125 C 18.75 -47.234375 17.03125 -40.84375 17.03125 -32.53125 Z M 17.03125 -32.53125 "/></g></g></g><g fill="#ffffff" fill-opacity="1"><g transform="translate(393.467236, 487.357832)"><g><path d="M 5.84375 -33.8125 C 5.84375 -44.019531 8.257812 -52.226562 13.09375 -58.4375 C 17.9375 -64.644531 24.269531 -67.75 32.09375 -67.75 C 39.882812 -67.75 46.054688 -65.085938 50.609375 -59.765625 L 50.609375 -94.4375 L 61.984375 -94.4375 L 61.984375 0 L 51.53125 0 L 50.96875 -7.125 C 46.414062 -1.550781 40.082031 1.234375 31.96875 1.234375 C 24.257812 1.234375 17.976562 -1.921875 13.125 -8.234375 C 8.269531 -14.546875 5.84375 -22.785156 5.84375 -32.953125 Z M 17.21875 -32.53125 C 17.21875 -24.988281 18.773438 -19.082031 21.890625 -14.8125 C 25.003906 -10.550781 29.304688 -8.421875 34.796875 -8.421875 C 42.015625 -8.421875 47.285156 -11.660156 50.609375 -18.140625 L 50.609375 -48.703125 C 47.203125 -54.972656 41.972656 -58.109375 34.921875 -58.109375 C 29.347656 -58.109375 25.003906 -55.953125 21.890625 -51.640625 C 18.773438 -47.335938 17.21875 -40.96875 17.21875 -32.53125 Z M 17.21875 -32.53125 "/></g></g></g><g fill="#ffffff" fill-opacity="1"><g transform="translate(464.481225, 487.357832)"><g><path d="M 36.21875 1.234375 C 27.195312 1.234375 19.859375 -1.726562 14.203125 -7.65625 C 8.546875 -13.582031 5.71875 -21.503906 5.71875 -31.421875 L 5.71875 -33.515625 C 5.71875 -40.109375 6.976562 -46 9.5 -51.1875 C 12.019531 -56.375 15.546875 -60.429688 20.078125 -63.359375 C 24.609375 -66.285156 29.515625 -67.75 34.796875 -67.75 C 43.453125 -67.75 50.175781 -64.898438 54.96875 -59.203125 C 59.757812 -53.503906 62.15625 -45.347656 62.15625 -34.734375 L 62.15625 -30 L 17.09375 -30 C 17.257812 -23.445312 19.175781 -18.148438 22.84375 -14.109375 C 26.507812 -10.066406 31.171875 -8.046875 36.828125 -8.046875 C 40.847656 -8.046875 44.25 -8.863281 47.03125 -10.5 C 49.820312 -12.144531 52.265625 -14.320312 54.359375 -17.03125 L 61.296875 -11.625 C 55.722656 -3.050781 47.363281 1.234375 36.21875 1.234375 Z M 34.796875 -58.40625 C 30.210938 -58.40625 26.359375 -56.734375 23.234375 -53.390625 C 20.117188 -50.054688 18.195312 -45.375 17.46875 -39.34375 L 50.78125 -39.34375 L 50.78125 -40.21875 C 50.457031 -45.988281 48.898438 -50.460938 46.109375 -53.640625 C 43.328125 -56.816406 39.554688 -58.40625 34.796875 -58.40625 Z M 34.796875 -58.40625 "/></g></g></g><g fill="#ffffff" fill-opacity="1"><g transform="translate(531.191339, 487.357832)"><g><path d="M 19.3125 -66.53125 L 19.609375 -59.15625 C 24.492188 -64.882812 31.070312 -67.75 39.34375 -67.75 C 48.65625 -67.75 54.988281 -64.1875 58.34375 -57.0625 C 60.5625 -60.257812 63.441406 -62.835938 66.984375 -64.796875 C 70.535156 -66.765625 74.726562 -67.75 79.5625 -67.75 C 94.15625 -67.75 101.570312 -60.023438 101.8125 -44.578125 L 101.8125 0 L 90.4375 0 L 90.4375 -43.90625 C 90.4375 -48.65625 89.347656 -52.207031 87.171875 -54.5625 C 85.003906 -56.925781 81.359375 -58.109375 76.234375 -58.109375 C 72.015625 -58.109375 68.507812 -56.847656 65.71875 -54.328125 C 62.9375 -51.804688 61.320312 -48.410156 60.875 -44.140625 L 60.875 0 L 49.4375 0 L 49.4375 -43.59375 C 49.4375 -53.269531 44.703125 -58.109375 35.234375 -58.109375 C 27.773438 -58.109375 22.671875 -54.929688 19.921875 -48.578125 L 19.921875 0 L 8.546875 0 L 8.546875 -66.53125 Z M 19.3125 -66.53125 "/></g></g></g><g fill="#ffffff" fill-opacity="1"><g transform="translate(641.555054, 487.357832)"><g><path d="M 20.96875 0 L 9.59375 0 L 9.59375 -66.53125 L 20.96875 -66.53125 Z M 8.671875 -84.171875 C 8.671875 -86.015625 9.234375 -87.570312 10.359375 -88.84375 C 11.484375 -90.113281 13.148438 -90.75 15.359375 -90.75 C 17.578125 -90.75 19.257812 -90.113281 20.40625 -88.84375 C 21.5625 -87.570312 22.140625 -86.015625 22.140625 -84.171875 C 22.140625 -82.328125 21.5625 -80.789062 20.40625 -79.5625 C 19.257812 -78.332031 17.578125 -77.71875 15.359375 -77.71875 C 13.148438 -77.71875 11.484375 -78.332031 10.359375 -79.5625 C 9.234375 -80.789062 8.671875 -82.328125 8.671875 -84.171875 Z M 8.671875 -84.171875 "/></g></g></g><g fill="#ffffff" fill-opacity="1"><g transform="translate(672.112606, 487.357832)"><g><path d="M 14.203125 0 L 14.203125 -57.734375 L 3.6875 -57.734375 L 3.6875 -66.53125 L 14.203125 -66.53125 L 14.203125 -73.359375 C 14.203125 -80.484375 16.109375 -85.992188 19.921875 -89.890625 C 23.734375 -93.785156 29.125 -95.734375 36.09375 -95.734375 C 38.71875 -95.734375 41.320312 -95.382812 43.90625 -94.6875 L 43.28125 -85.46875 C 41.351562 -85.832031 39.304688 -86.015625 37.140625 -86.015625 C 33.453125 -86.015625 30.601562 -84.9375 28.59375 -82.78125 C 26.582031 -80.632812 25.578125 -77.550781 25.578125 -73.53125 L 25.578125 -66.53125 L 39.78125 -66.53125 L 39.78125 -57.734375 L 25.578125 -57.734375 L 25.578125 0 Z M 14.203125 0 "/></g></g></g><g fill="#ffffff" fill-opacity="1"><g transform="translate(715.827723, 487.357832)"><g><path d="M 30.375 -16.65625 L 45.875 -66.53125 L 58.046875 -66.53125 L 31.296875 10.265625 C 27.160156 21.335938 20.582031 26.875 11.5625 26.875 L 9.40625 26.6875 L 5.171875 25.890625 L 5.171875 16.65625 L 8.234375 16.90625 C 12.085938 16.90625 15.085938 16.125 17.234375 14.5625 C 19.390625 13.007812 21.164062 10.164062 22.5625 6.03125 L 25.09375 -0.734375 L 1.359375 -66.53125 L 13.765625 -66.53125 Z M 30.375 -16.65625 "/></g></g></g><g fill="#fee600" fill-opacity="1"><g transform="translate(226.448065, 506.34331)"><g><path d="M 22.84375 -55.703125 L 76.984375 -33.828125 L 76.984375 -16.875 L 6.234375 -49.65625 L 6.234375 -62.28125 L 76.984375 -94.984375 L 76.984375 -78.03125 Z M 22.84375 -55.703125 "/></g></g></g></svg>